<?xml version="1.0" standalone="no"?>
<!DOCTYPE svg PUBLIC "-//W3C//DTD SVG 20010904//EN"
 "http://www.w3.org/TR/2001/REC-SVG-20010904/DTD/svg10.dtd">
<svg version="1.0" xmlns="http://www.w3.org/2000/svg"
 width="1920.000000pt" height="1920.000000pt" viewBox="0 0 1920.000000 1920.000000"
 preserveAspectRatio="xMidYMid meet">

<g transform="translate(0.000000,1920.000000) scale(0.100000,-0.100000)"
fill="#000000" stroke="none">
<path d="M7185 13283 c-105 -14 -234 -81 -319 -167 -67 -66 -131 -179 -162
-281 -18 -57 -19 -175 -21 -2513 -3 -2232 -2 -2456 13 -2487 9 -19 28 -42 42
-52 25 -17 75 -18 847 -21 451 -2 834 0 852 3 43 8 90 54 98 97 8 43 -16 102
-49 121 -16 9 -213 13 -791 17 l-770 5 -3 2345 c-3 2623 -8 2421 69 2540 21
32 60 75 86 94 100 73 -188 67 3353 64 l3185 -3 47 -22 c58 -27 132 -93 165
-150 56 -96 53 48 53 -2510 l0 -2363 -1346 0 c-1251 0 -1348 -1 -1375 -17 -31
-19 -59 -68 -59 -105 0 -36 37 -88 75 -104 29 -12 230 -14 1370 -14 l1335 0 0
-205 0 -205 -1206 0 -1206 0 -34 -34 c-29 -29 -34 -41 -34 -79 0 -45 23 -87
58 -106 10 -5 621 -11 1444 -12 l1427 -4 30 23 c43 32 59 88 36 135 -27 58
-56 71 -171 75 l-101 4 -2 2219 -2 2219 605 0 606 0 0 -902 c0 -888 0 -904 20
-936 40 -66 -46 -62 1430 -62 l1340 0 0 -1270 0 -1270 -272 0 c-244 0 -277 -2
-314 -19 -82 -37 -94 -136 -23 -195 l31 -26 365 0 c326 0 368 2 394 17 63 37
59 -70 59 1620 0 1456 -1 1541 -18 1573 -10 19 -63 96 -118 170 -55 74 -178
241 -274 370 -95 129 -197 267 -225 305 -29 39 -143 194 -255 345 -112 151
-239 324 -283 383 -44 59 -92 114 -108 122 -24 13 -232 15 -1493 15 l-1465 0
-4 383 c-3 352 -5 387 -24 443 -66 197 -195 335 -376 402 l-72 27 -3215 1
c-1768 1 -3228 -1 -3245 -3z m10015 -1810 c129 -175 271 -367 316 -428 644
-870 604 -813 604 -866 l0 -49 -1275 0 -1275 0 0 830 0 830 698 0 697 0 235
-317z"/>
<path d="M902 12700 c-69 -42 -79 -130 -21 -186 l30 -29 314 0 314 0 30 29
c58 56 48 144 -21 186 -31 19 -51 20 -323 20 -272 0 -292 -1 -323 -20z"/>
<path d="M2245 12710 c-61 -25 -89 -102 -60 -163 30 -64 47 -67 372 -67 315 0
321 1 360 59 28 42 29 76 3 119 -36 59 -57 62 -372 61 -156 0 -292 -4 -303 -9z"/>
<path d="M3574 12710 c-11 -4 -33 -22 -47 -40 -46 -54 -33 -130 29 -171 27
-18 49 -19 325 -19 292 0 297 0 330 23 21 14 39 38 48 63 13 38 13 44 -5 79
-38 72 -51 75 -374 74 -157 0 -294 -4 -306 -9z"/>
<path d="M2077 11062 c-43 -29 -56 -53 -56 -102 0 -49 13 -73 56 -102 25 -16
54 -18 316 -18 318 0 343 4 372 61 32 61 10 135 -49 163 -29 14 -76 16 -323
16 -262 0 -291 -2 -316 -18z"/>
<path d="M3402 11060 c-19 -12 -40 -37 -49 -58 -21 -50 -2 -107 46 -139 33
-23 39 -23 323 -23 248 0 295 2 324 16 86 41 84 168 -2 209 -26 12 -83 15
-321 15 -271 0 -290 -1 -321 -20z"/>
<path d="M4732 11060 c-19 -12 -40 -37 -49 -58 -21 -50 -2 -107 46 -139 33
-23 39 -23 323 -23 324 0 343 3 372 65 20 42 20 68 0 110 -29 62 -48 65 -371
65 -271 0 -290 -1 -321 -20z"/>
<path d="M1914 9290 c-11 -4 -33 -22 -47 -40 -48 -56 -31 -142 34 -176 42 -21
597 -21 639 1 42 22 60 53 60 106 0 51 -27 91 -75 109 -32 12 -581 12 -611 0z"/>
<path d="M3232 9283 c-83 -40 -83 -166 -1 -209 41 -21 597 -21 638 0 83 44 80
170 -5 211 -49 23 -584 22 -632 -2z"/>
<path d="M4561 9282 c-19 -10 -44 -36 -55 -57 -18 -35 -18 -41 -5 -79 9 -25
27 -49 48 -63 33 -23 38 -23 330 -23 221 1 302 4 319 14 56 31 78 111 46 165
-33 55 -35 56 -354 59 -273 2 -298 1 -329 -16z"/>
<path d="M9575 8525 c-359 -57 -682 -263 -882 -562 -146 -218 -210 -419 -220
-689 -9 -230 31 -426 127 -620 204 -417 597 -688 1064 -734 372 -37 760 100
1028 364 156 152 268 330 336 531 88 258 88 571 0 829 -121 359 -404 661 -749
800 -215 87 -477 117 -704 81z m402 -240 c314 -60 595 -263 743 -538 111 -206
155 -412 131 -622 -29 -259 -131 -474 -310 -654 -230 -231 -555 -349 -867
-312 -461 53 -809 353 -936 806 -25 92 -35 312 -18 426 65 444 421 813 865
894 98 18 296 18 392 0z"/>
<path d="M9680 7915 c-354 -62 -590 -338 -590 -690 0 -124 17 -192 76 -313 82
-168 228 -290 419 -350 114 -35 275 -35 391 0 118 36 207 90 295 177 217 217
265 531 125 809 -101 201 -290 332 -536 371 -77 13 -84 13 -180 -4z m215 -247
c222 -56 377 -292 336 -513 -46 -246 -284 -418 -520 -376 -131 23 -236 91
-305 196 -71 107 -96 219 -72 331 37 178 149 302 321 357 85 27 147 29 240 5z"/>
<path d="M15730 8526 c-302 -54 -541 -182 -747 -400 -301 -318 -423 -769 -322
-1196 118 -504 510 -884 1022 -991 145 -30 371 -31 514 0 538 113 945 531
1037 1066 50 289 -11 635 -156 879 -195 329 -498 549 -868 631 -102 23 -380
29 -480 11z m400 -240 c330 -59 620 -278 772 -581 86 -170 128 -394 108 -570
-28 -246 -98 -415 -249 -597 -178 -215 -424 -345 -716 -379 -306 -36 -637 83
-865 311 -321 321 -405 807 -210 1218 56 118 103 184 200 285 154 162 349 268
566 311 90 18 299 19 394 2z"/>
<path d="M15857 7919 c-232 -34 -427 -169 -531 -369 -143 -274 -93 -594 128
-815 82 -82 172 -135 289 -172 68 -21 102 -26 197 -26 99 0 127 4 200 28 121
39 204 89 286 170 136 136 205 298 207 485 4 359 -253 649 -619 700 -42 5 -81
9 -87 9 -7 -1 -38 -5 -70 -10z m204 -254 c198 -56 330 -228 332 -430 2 -230
-158 -419 -388 -457 -234 -39 -471 134 -516 377 -41 222 114 456 341 513 91
23 142 22 231 -3z"/>
<path d="M6355 8446 c-22 -7 -54 -20 -71 -29 -45 -23 -111 -100 -123 -143 -7
-25 -11 -201 -11 -494 0 -436 1 -457 21 -500 34 -75 96 -126 183 -151 16 -5
411 -9 877 -9 941 -1 880 -5 913 65 20 42 20 58 0 101 -32 67 12 64 -888 64
-505 0 -824 4 -840 10 l-26 10 0 414 c0 400 1 416 19 426 11 5 31 10 44 10 39
0 90 41 106 85 12 35 11 45 -2 77 -29 70 -107 94 -202 64z"/>
</g>
</svg>
