<svg width="5001" height="5001" xmlns="http://www.w3.org/2000/svg" xml:space="preserve" enable-background="new 0 0 5001 5001" version="1.1">

 <g>
  <title>Layer 1</title>
  <path id="svg_23" d="m660.11536,3239.90039c-0.55683,-0.04932 -1.22687,0.12598 -1.80658,-0.03149c-1.18891,-0.32325 -2.32935,-0.82471 -3.48975,-1.25269c1.48236,-0.10327 2.96472,-0.20654 4.77325,0.60718c0.32618,0.91675 0.45075,0.75122 0.52308,0.677z" fill="#FED338"/>
  <path id="svg_25" d="m4391.85889,579.92676c-0.34522,0.16119 -0.69043,0.32239 -0.45264,0.28875c0.58301,-0.19482 0.45264,-0.28881 0.45264,-0.28875z" fill="#FED338"/>
  <path id="svg_27" d="m4392.03809,580.0846c0.34814,-0.14917 0.64697,-0.36231 0.3833,-0.3667c-0.5625,0.2088 -0.43213,0.30279 -0.3833,0.3667z" fill="#FED338"/>
  <g id="svg_40">
   <path id="svg_2" d="m2668.24316,2159.51856c7.5188,2.99902 14.87647,3.36913 23.12696,1.89746c56.40942,-10.05982 112.93261,-19.4834 171.03759,-27.43018c1.66651,8.31274 2.35889,13.87012 7.54664,19.71533c6.87671,7.74878 11.24878,17.82813 16.05957,27.23218c1.33935,2.61816 1.32959,6.69116 0.36767,9.57178c-2.42627,7.26489 0.90796,12.91064 4.24195,19.80468c2.56982,0.70288 5.72802,1.51636 8.85546,2.43457c4.16407,1.22217 7.09571,3.93555 7.82593,8.198c2.85327,16.66309 15.4668,29.37134 18.48413,45.96973c0.33838,1.86279 1.47437,3.90698 2.86206,5.20044c10.75806,10.02734 15.17139,23.01294 16.78809,36.3811c1.96753,1.28174 2.97388,2.22095 4.16504,2.67041c14.60034,5.50879 15.0166,5.5586 12.69067,19.48413c-0.83325,4.98731 -0.39599,9.04834 1.79077,13.34571c4.7959,9.42407 9.43726,18.92651 14.8501,29.82299c-0.34155,-0.2727 0.56104,0.91211 1.7312,1.30982c10.88233,3.69873 16.19556,11.03662 15.41333,22.67676c-0.38232,5.68994 2.3335,10.09716 5.91065,14.35254c2.50341,2.97778 4.1643,6.68286 6.08325,10.12915c8.36523,15.02514 16.34912,30.27661 25.17627,45.02417c4.052,6.76953 9.81714,12.49926 14.64111,18.82568c4.04248,5.30127 7.78882,10.52295 6.05884,18.10937c-3.98779,17.48536 0.55395,32.6814 13.44165,45.32251c4.24121,4.16016 8.05322,8.77832 12.46265,12.74073c4.66504,4.19214 8.53344,8.71582 7.99633,15.29956c-0.78149,9.58276 3.37915,16.62646 10.32129,22.59228c6.30616,5.41992 10.34449,11.78369 10.25659,20.68726c-0.03686,3.73096 1.46461,8.31665 3.89502,11.08349c9.25782,10.53956 14.71607,23.0586 21.21485,35.22901c6.07471,11.37622 15.51172,20.95605 20.40454,33.28906c0.96875,2.44165 2.71631,4.57153 4.08105,6.85986c3.40308,5.70435 6.8982,11.35743 10.15503,17.14429c3.01709,5.36035 5.03223,11.13477 2.57593,17.19092c-2.94629,7.26489 -0.04639,12.85278 4.16382,18.35937c4.24341,5.5503 10.20605,-0.21533 14.79126,2.29712c14.45581,17.30469 14.45581,17.30469 12.48706,35.41675c4.03516,2.93018 8.27905,6.01172 11.8064,8.573c2.73974,11.25635 5.23291,21.49878 7.79858,32.03931c6.28516,1.98437 11.95337,3.77417 17.28003,6.88354c-7.18579,13.50903 -13.9707,25.73242 -20.88379,37.88257c-30.94458,54.38721 -61.99536,108.7146 -92.87427,163.1394c-30.22241,53.26807 -60.26001,106.64112 -90.42187,159.94385c-33.43897,59.09375 -66.9397,118.1521 -100.38867,177.24024c-18.69312,33.02221 -37.29395,66.09643 -56.00733,99.10742c-26.59082,46.90698 -53.26977,93.76391 -79.86743,140.66675c-19.04687,33.58715 -37.98926,67.23315 -57.03589,100.82031c-25.94092,45.74463 -51.93213,91.46069 -77.91138,137.18359c-20.38891,35.88501 -40.80273,71.75635 -61.18554,107.64502c-18.0813,31.83667 -36.18628,63.65991 -54.18823,95.54151c-26.18628,46.37524 -52.19385,92.8518 -78.45289,139.1853c-30.85278,54.43896 -61.91088,108.76123 -92.84179,163.15625c-11.84595,20.83252 -23.49781,41.77588 -35.40015,62.57568c-11.93433,20.85645 -27.82397,27.94824 -51.66797,23.48242c-3.26587,-0.61181 -6.60498,-0.83056 -10.80395,-2.22753c-20.93384,-14.77442 -26.62769,-33.12305 -20.59742,-56.63526c24.10792,-93.9873 47.67969,-188.11279 71.46021,-282.18408c29.96997,-118.55713 60.02148,-237.09326 89.90112,-355.67285c19.48731,-77.33643 38.62354,-154.76123 58.1128,-232.09693c23.22338,-92.15503 46.62695,-184.26489 70.00659,-276.38037c26.323,-103.71118 52.89306,-207.35986 79.01098,-311.12256c25.14527,-99.89941 49.86866,-199.90527 74.68702,-299.88672c1.10669,-4.45874 2.2229,-9.2268 1.79614,-13.70385c-2.58228,-27.0896 -34.06299,-48.65601 -57.55396,-40.78906c-30.80835,10.31738 -62.82617,17.04199 -94.3584,25.17651c-88.16015,22.74194 -176.33569,45.42432 -264.51001,68.11108c-46.98437,12.08863 -93.96948,24.17505 -140.97094,36.19678c-55.36963,14.16187 -110.77075,28.19946 -166.13257,42.39136c-41.82544,10.72192 -83.70508,21.25293 -125.37915,32.53857c-25.75134,6.97388 -64.52503,-10.52051 -58.05078,-52.83056c0.79638,-5.20459 2.8407,-10.2544 4.6145,-15.26685c6.21521,-17.5625 12.65857,-35.04492 18.84277,-52.61816c9.71936,-27.6189 19.12818,-55.34864 28.97559,-82.92164c17.22937,-48.24292 34.81689,-96.35815 52.0133,-144.61279c11.84009,-33.22388 23.2594,-66.59741 34.89332,-99.89502c8.33984,-23.86963 16.58532,-47.77368 25.11584,-71.57544c17.5083,-48.85205 35.31262,-97.59839 52.73706,-146.47998c11.6189,-32.59546 22.77063,-65.35742 34.17261,-98.03052c8.33105,-23.87316 16.61743,-47.76281 25.11914,-71.57531c18.79199,-52.6333 37.78223,-105.19593 56.54248,-157.84033c10.27539,-28.83448 20.24023,-57.77967 30.35962,-86.6698c8.35864,-23.86329 16.62768,-47.75879 25.13232,-71.56995c18.79859,-52.63062 37.78369,-105.19458 56.56543,-157.83105c9.16821,-25.69446 17.92261,-51.5365 27.10376,-77.22632c7.59766,-21.25867 15.54737,-42.39173 24.85645,-63.6261c3.48706,-0.32654 5.49438,-0.45764 7.42505,-0.91333c13.96679,-3.29529 14.12353,-3.14136 20.56494,8.15564c10.14599,17.79358 20.04736,35.7489 30.87988,53.11963c5.58472,8.9552 13.1001,16.66809 12.66626,28.29797c-0.06323,1.69385 1.9812,3.38489 2.7478,5.20447c4.22608,10.031 12.77466,14.55139 23.03394,16.74768c0,4.25573 0.52734,7.58191 -0.08447,10.68347c-4.37183,22.15991 1.1604,40.80872 20.08569,53.92554c7.84936,5.44043 12.57666,12.24829 12.69775,21.25244c0.12427,9.2727 2.99829,16.53345 9.34302,23.19141c6.33521,6.64746 11.81421,14.1112 18.87915,22.6864c-2.51611,15.29724 2.01441,29.74963 16.35132,40.27807c1.51562,1.1128 2.48193,3.11756 3.40601,4.8656c3.4121,6.45508 6.34277,13.17176 12.72998,17.55066c1.46655,1.00525 2.38037,3.13416 3.0476,4.93201c2.76319,7.44519 6.30225,14.77563 7.78443,22.48865c3.64502,18.96679 9.45044,36.70215 19.02539,53.81604c6.19458,11.07238 16.14111,21.05871 15.80957,35.69409c-0.07813,3.46411 5.29834,7.29419 8.57715,10.54077c6.64599,6.58093 13.07129,13.22949 16.81543,22.03687c1.0227,2.40588 2.26684,5.39831 4.30346,6.57959c11.40747,6.61559 13.99536,19.03979 18.54102,29.48974c7.65454,17.59656 15.34521,34.72388 29.57226,48.17688c4.71216,4.45581 4.667,8.41431 0.70801,14.18958c-1.87182,2.73046 -4.62915,4.92431 -6.16626,7.79907c-2.93579,5.49084 -3.71216,11.24963 1.00708,17.84888c2.73682,-1.24781 5.53076,-2.61732 8.39795,-3.81043c8.26587,-3.43957 12.19898,-2.09595 16.23047,5.51477c0.93188,1.75916 2.20947,3.55408 2.42749,5.43677c1.29517,11.1831 3.31641,22.03577 8.88501,32.12695c1.38989,2.51856 0.37231,6.52454 0.02588,9.80078c-0.40405,3.81848 -1.28564,7.58631 -2.21533,12.81079c3.5625,2.94727 6.91235,6.27491 10.78857,8.79212c5.49683,3.56958 7.63672,8.30273 8.58789,14.74255c1.11646,7.55933 6.15576,9.91345 12.97681,5.5503c5.08276,-3.25147 9.22583,-4.2223 14.70239,-2.30579c2.42407,0.84814 5.25757,0.52624 7.48486,2.08374c-12.95263,23.93896 -25.53881,46.49975 -37.9895,69.13525c-4.81421,8.75269 -9.85229,17.44165 -13.85498,26.56934c-8.10498,18.48193 -3.66723,35.14599 13.46436,50.82251c5.08179,4.30786 9.04638,8.00415 14.96264,7.64307z" fill="#FED338"/>
   <path id="svg_3" fill="#FBD133"/>
   <path id="svg_6" fill="#F9CF28"/>
   <path id="svg_8" fill="#F7CE1C"/>
   <path id="svg_9" fill="#F6CC0C"/>
   <path id="svg_10" fill="#F7CE1C"/>
   <path id="svg_13" fill="#E0CABC"/>
   <path id="svg_14"  fill="#F6CC0C"/>
   <path id="svg_16" fill="#E0CABC"/>
   <path id="svg_18" fill="#CCB5A6"/>
   <path id="svg_29"  fill="#CCB5A6"/>
   <path id="svg_30"  fill="#CCB5A6"/>
  </g>
 </g>
</svg>